<svg xmlns="http://www.w3.org/2000/svg"  viewBox="0 0 100 100" width="100px" height="100px"><path fill="#b1bdd0" d="M90.831,49.285C89.217,35.336,71.62,25.155,49,25.155c-22.347,0-39.931,10.033-41.808,23.856 C7.074,49.771,7.007,50.585,7,51.371c-0.03,3.218,0.737,5.969,2.345,8.407C16.909,71.252,34.891,75.06,35.665,75.24l2.835,0.663 l10.5-24.5l10.5,24.5l2.835-0.661c0.773-0.18,18.756-3.988,26.319-15.463c1.608-2.439,2.375-5.189,2.345-8.407 C90.994,50.736,90.939,50.074,90.831,49.285z M85.731,57.853c-6.883,10.442-24.482,14.551-24.482,14.551L49,44.404L36.75,72.404 c0,0-17.599-4.109-24.482-14.551c-1.325-2.011-1.788-4.184-1.767-6.449c0.005-0.63,0.059-1.272,0.159-1.923 C12.266,37.66,28.511,28.654,49,28.654c20.65,0,36.98,9.151,38.363,21.11c0.077,0.553,0.131,1.102,0.136,1.64 C87.52,53.668,87.056,55.842,85.731,57.853z"/><path fill="#7c8a9e" d="M61.249,72.404L49,44.997L36.75,72.404l1.75,3.5l10.5-24.5l10.5,24.5L61.249,72.404z"/><path fill="#d1dae7" d="M87.861,49.711C86.46,37.409,69.917,27.997,49,27.997c-20.755,0-37.211,9.263-38.838,21.422 c-0.101,0.67-0.156,1.33-0.161,1.978c-0.021,2.329,0.448,4.565,1.79,6.633C18.763,68.77,37,72.997,37,72.997l12-27.5l12,27.5 c0,0,18.237-4.227,25.209-14.967c1.342-2.068,1.812-4.304,1.79-6.633C87.994,50.845,87.939,50.279,87.861,49.711z M68.249,63.654 L49,40.904l-19.25,22.75c0,0-15.75-4.45-15.75-12.25c0-0.581,0.066-1.153,0.159-1.72c0.03-0.178,0.065-0.357,0.103-0.535 c0.094-0.444,0.219-0.885,0.367-1.319c0.044-0.128,0.075-0.257,0.122-0.385C18.083,38.724,32.17,32.154,49,32.154 c15.412,0,28.502,5.514,33.16,13.139c0.198,0.331,0.38,0.665,0.548,1.001c0.1,0.198,0.191,0.395,0.278,0.595 c0.156,0.355,0.299,0.712,0.42,1.073c0.086,0.257,0.15,0.518,0.217,0.779c0.077,0.297,0.161,0.597,0.214,0.896 c0.096,0.583,0.163,1.171,0.163,1.767C83.999,59.204,68.249,63.654,68.249,63.654z"/><path fill="none" stroke="#1f212b" stroke-linecap="round" stroke-linejoin="round" stroke-miterlimit="10" stroke-width="2" d="M90.831,49.247C89.217,35.229,71.62,24.997,49,24.997c-22.347,0-39.931,10.082-41.808,23.974C7.074,49.736,7.007,50.554,7,51.343 c-0.03,3.234,0.737,5.999,2.345,8.448c7.563,11.531,25.546,15.358,26.319,15.539l2.835,0.667l10.5-24.5l10.5,24.5l2.835-0.665 c0.773-0.181,18.756-4.008,26.319-15.539c1.608-2.452,2.375-5.214,2.345-8.448C90.994,50.705,90.939,50.04,90.831,49.247z"/><path fill="none" stroke="#1f212b" stroke-linecap="round" stroke-linejoin="round" stroke-miterlimit="10" stroke-width="2" d="M68.5,63.997l-19.5-23l-19,23c0,0-16-4.7-16-12.5c0-0.581,0.066-1.153,0.159-1.72c0.03-0.178,0.065-0.357,0.103-0.535 c0.094-0.444,0.219-0.885,0.367-1.319c0.044-0.128,0.075-0.257,0.122-0.385c3.33-8.72,17.418-15.54,34.248-15.54 c15.412,0,28.502,5.765,33.161,13.389c0.198,0.331,0.38,0.665,0.548,1.001c0.1,0.198,0.191,0.395,0.278,0.595 c0.156,0.355,0.299,0.712,0.42,1.073c0.086,0.257,0.15,0.518,0.217,0.779c0.077,0.297,0.161,0.597,0.214,0.896 C83.933,50.313,84,50.901,84,51.497C84,59.297,68.5,63.997,68.5,63.997z"/><path fill="none" stroke="#1f212b" stroke-linecap="round" stroke-linejoin="round" stroke-miterlimit="10" d="M85.731,57.863 c-6.883,10.502-24.482,14.634-24.482,14.634l-1.74-4"/><path fill="none" stroke="#1f212b" stroke-linecap="round" stroke-linejoin="round" stroke-miterlimit="10" d="M53.5,28.645 c18.48,1.227,32.582,9.943,33.863,21.083c0.077,0.556,0.131,1.109,0.136,1.649"/><path fill="none" stroke="#1f212b" stroke-linecap="round" stroke-linejoin="round" stroke-miterlimit="10" d="M38.055,69.497 l-1.305,3c0,0-17.599-4.132-24.482-14.634c-1.325-2.022-1.788-4.208-1.767-6.486c0.005-0.634,0.059-1.28,0.159-1.934 C12.266,37.554,28.511,28.497,49,28.497"/><line x1="43.71" x2="39.5" y1="56.497" y2="66.176" fill="none" stroke="#1f212b" stroke-linecap="round" stroke-linejoin="round" stroke-miterlimit="10"/><line x1="46.755" x2="45.015" y1="49.497" y2="53.497" fill="none" stroke="#1f212b" stroke-linecap="round" stroke-linejoin="round" stroke-miterlimit="10"/></svg>