<svg xmlns="http://www.w3.org/2000/svg"  viewBox="0 0 100 100" width="100px" height="100px"><path fill="#7986cb" d="M22.566,52.969c0.021,0.188,0.059,0.362,0.083,0.547C22.624,53.333,22.585,53.155,22.566,52.969z"/><path fill="#75849d" d="M50,22.4l-5.679,24.833L50,50l5.786-2.767L50,22.4z"/><path fill="#b1bdd0" d="M50,22.4l-5.679,24.833L50,50V22.4z"/><path fill="#b1bdd0" d="M25.85,63.8L50,56.36V50l-5.679-2.767L25.85,63.8z"/><path fill="#7c8a9e" d="M25.85,63.8L50,56.36V50L25.85,63.8z"/><path fill="#b1bdd0" d="M74.15,63.909L50,56.36V50l5.786-2.767L74.15,63.909z"/><path fill="#75849d" d="M74.15,63.909L50,56.36V50L74.15,63.909z"/><path fill="#b1bdd0" d="M49.75,15c-19.33,0-35,15.67-35,35s15.67,35,35,35s35-15.67,35-35S69.08,15,49.75,15z M49.75,78.25 C34.148,78.25,21.5,65.602,21.5,50s12.648-28.25,28.25-28.25S78,34.398,78,50S65.352,78.25,49.75,78.25z"/><circle cx="50" cy="50" r="35" fill="none" stroke="#1f212b" stroke-miterlimit="10" stroke-width="2"/><circle cx="50" cy="50" r="28" fill="none" stroke="#1f212b" stroke-miterlimit="10" stroke-width="2"/><path fill="none" stroke="#1f212b" stroke-linecap="round" stroke-linejoin="round" stroke-miterlimit="10" d="M50,22.4 l-5.679,24.833L50,50l5.786-2.767L50,22.4z"/><path fill="none" stroke="#1f212b" stroke-linecap="round" stroke-linejoin="round" stroke-miterlimit="10" d="M25.85,63.8L50,56.36 V50l-5.679-2.767L25.85,63.8z"/><path fill="none" stroke="#1f212b" stroke-linecap="round" stroke-linejoin="round" stroke-miterlimit="10" d="M74.15,63.909 L50,56.36V50l5.786-2.767L74.15,63.909z"/><line x1="50" x2="50" y1="36" y2="22.4" fill="none" stroke="#1f212b" stroke-linecap="round" stroke-linejoin="round" stroke-miterlimit="10"/><polyline fill="none" stroke="#1f212b" stroke-linecap="round" stroke-linejoin="round" stroke-miterlimit="10" points="46.938,51.75 50,50 50,41.5"/><line x1="25.85" x2="43" y1="63.8" y2="54" fill="none" stroke="#1f212b" stroke-linecap="round" stroke-linejoin="round" stroke-miterlimit="10"/><line x1="63.25" x2="55.5" y1="57.694" y2="53.194" fill="none" stroke="#1f212b" stroke-linecap="round" stroke-linejoin="round" stroke-miterlimit="10"/><line x1="73.25" x2="66.5" y1="63.5" y2="59.581" fill="none" stroke="#1f212b" stroke-linecap="round" stroke-linejoin="round" stroke-miterlimit="10"/></svg>