<svg xmlns="http://www.w3.org/2000/svg"  viewBox="0 0 50 50" width="50px" height="50px"><path d="M 25.089844 3.6289062 L 24.21875 5.1777344 L 16.933594 18.130859 L 24.716797 31.96875 L 24.275391 31.96875 L 24.246094 31.96875 L 9.5078125 31.960938 L 0.4765625 46 L 17.40625 46 L 25.15625 33.398438 L 25.212891 33.492188 L 32.902344 46 L 49.832031 46 L 40.800781 31.960938 L 26.035156 31.96875 L 25.462891 31.96875 L 33.246094 18.130859 L 25.089844 3.6289062 z M 25.089844 7.7089844 L 30.951172 18.130859 L 25.089844 28.552734 L 19.226562 18.130859 L 25.089844 7.7089844 z M 10.599609 33.960938 L 22.457031 33.966797 L 16.287109 44 L 4.1425781 44 L 10.599609 33.960938 z M 39.708984 33.960938 L 46.166016 44 L 34.021484 44 L 27.853516 33.966797 L 39.708984 33.960938 z"/></svg>