<svg xmlns="http://www.w3.org/2000/svg"  viewBox="0 0 80 80" width="80px" height="80px"><path fill="#8bb7f0" d="M77.5,40c0,20.713-16.787,37.5-37.5,37.5S2.5,60.713,2.5,40S19.287,2.5,40,2.5S77.5,19.287,77.5,40z"/><path fill="#4e7ab5" d="M40,78C19.047,78,2,60.953,2,40S19.047,2,40,2s38,17.047,38,38S60.953,78,40,78z M40,3 C19.598,3,3,19.598,3,40s16.598,37,37,37s37-16.598,37-37S60.402,3,40,3z"/><g><path fill="#fff" d="M40,8.438C22.565,8.438,8.437,22.565,8.437,40S22.565,71.563,40,71.563S71.562,57.435,71.562,40 S57.435,8.438,40,8.438z M40,12.151c2.792,0,5.476,0.421,8.021,1.189L40,31.717L31.979,13.34 C34.524,12.571,37.208,12.151,40,12.151z M12.151,40c0-2.314,0.319-4.555,0.856-6.708l14.802,31.708 C18.555,60.466,12.151,50.98,12.151,40z M40,67.849c-3.554,0-6.941-0.696-10.066-1.915L40,46.471l10.066,19.464 C46.941,67.153,43.554,67.849,40,67.849z M44.5,39.5h-9.588l-5.356,12.452L16.901,24.465c2.168-3.22,5.011-5.94,8.297-8.014 l10.19,23.132h9.225l10.19-23.132c3.285,2.074,6.128,4.794,8.297,8.014L50.443,51.952L44.5,39.5z M52.191,64.999l14.802-31.708 c0.537,2.154,0.856,4.395,0.856,6.708C67.849,50.98,61.445,60.466,52.191,64.999z"/><path fill="#4e7ab5" d="M40,72.063C22.321,72.063,7.938,57.679,7.938,40S22.321,7.938,40,7.938S72.063,22.321,72.063,40 S57.679,72.063,40,72.063z M40,8.938C22.872,8.938,8.938,22.872,8.938,40S22.872,71.063,40,71.063S71.063,57.128,71.063,40 S57.128,8.938,40,8.938z M40,68.349c-3.482,0-6.93-0.656-10.248-1.949l-0.518-0.202L40,45.382l10.766,20.816L50.248,66.4 C46.93,67.693,43.482,68.349,40,68.349z M30.636,65.666c6.082,2.235,12.646,2.235,18.729,0L40,47.559L30.636,65.666z M51.139,66.071l15.999-34.27l0.341,1.369c0.577,2.318,0.87,4.616,0.87,6.83c0,10.882-6.107,20.633-15.938,25.448L51.139,66.071z M66.826,34.833l-13.557,29.04c8.722-4.845,14.08-13.863,14.08-23.873C67.349,38.32,67.173,36.587,66.826,34.833z M28.861,66.071 l-1.272-0.623C17.758,60.633,11.651,50.882,11.651,40c0-2.214,0.293-4.512,0.87-6.83l0.341-1.369L28.861,66.071z M13.174,34.833 c-0.347,1.754-0.523,3.487-0.523,5.167c0,10.009,5.358,19.028,14.08,23.873L13.174,34.833z M29.572,53.182L16.329,24.419 l0.157-0.233c2.196-3.262,5.038-6.006,8.444-8.158l0.491-0.31L35.677,39h8.646l10.256-23.281l0.491,0.31 c3.407,2.151,6.248,4.896,8.444,8.158l0.157,0.233L50.452,53.13l-6.227-13.046h-9.019L29.572,53.182z M45.127,39.654l5.308,11.12 l12.092-26.261c-1.989-2.889-4.511-5.35-7.503-7.324L45.127,39.654z M17.473,24.513l12.068,26.209L34.584,39l-9.608-21.811 C21.984,19.164,19.462,21.625,17.473,24.513z M40,32.967l-8.705-19.942l0.539-0.163c5.318-1.607,11.013-1.607,16.331,0l0.539,0.163 L40,32.967z M32.665,13.662L40,30.467l7.335-16.805C42.542,12.32,37.458,12.32,32.665,13.662z"/></g></svg>