<svg xmlns="http://www.w3.org/2000/svg"  viewBox="0 0 100 100" width="100px" height="100px"><path fill="#b1bdd0" d="M50,16c-19.33,0-35,15.67-35,35s15.67,35,35,35s35-15.67,35-35C84.913,31.706,69.294,16.087,50,16z M50,74.996c-13.022,0.231-23.765-10.138-23.996-23.159c-0.005-0.279-0.005-0.558,0-0.837 c-0.231-13.022,10.138-23.765,23.159-23.996c0.279-0.005,0.558-0.005,0.837,0c13.022-0.231,23.765,10.138,23.996,23.159 c0.005,0.279,0.005,0.558,0,0.837c0.231,13.022-10.138,23.765-23.159,23.996C50.558,75.001,50.279,75.001,50,74.996z"/><polygon fill="#b1bdd0" points="85,14 85,32 67,14"/><path fill="#375ca9" d="M74.334,51.098c0.016,2.976-0.498,5.93-1.518,8.726H26.989c-2.025-5.641-2.025-11.81,0-17.451 h45.827C73.836,45.167,74.35,48.122,74.334,51.098z"/><rect width="12.214" height="14.656" x="67.393" y="18.172" fill="#b1bdd0" transform="rotate(-45.001 73.5 25.501)"/><line x1="26.887" x2="72.387" y1="42.5" y2="42.5" fill="none" stroke="#1f212b" stroke-linecap="round" stroke-linejoin="round" stroke-miterlimit="10"/><polygon fill="#f5f9fc" points="29.25,47.25 34.504,47.25 34.504,48.468 33.333,48.468 34.917,52.941 36.542,48.468 35.543,48.468 35.546,47.25 39.129,47.25 39.116,48.46 38.024,48.46 35.681,54.75 32.861,54.75 30.408,48.462 29.25,48.462"/><polygon fill="#f5f9fc" points="53.826,47.25 59.104,47.25 59.104,48.474 57.926,48.474 59.518,52.966 61.151,48.474 60.147,48.474 60.151,47.25 63.75,47.25 63.737,48.466 62.639,48.466 60.286,54.784 57.454,54.784 54.99,48.467 53.826,48.467"/><path fill="#f5f9fc" d="M42.85,47.252c-1.932-0.046-3.534,1.513-3.579,3.481c-0.001,0.052-0.001,0.104,0,0.155 c-0.259,1.85,1.003,3.564,2.82,3.828c0.28,0.041,0.565,0.045,0.846,0.012c1.871,0.009,3.394-1.529,3.403-3.435 c0-0.102-0.004-0.204-0.012-0.306c0.168-1.885-1.196-3.552-3.047-3.723C43.137,47.251,42.993,47.247,42.85,47.252z M42.799,53.641 c-0.706,0-1.278-1.204-1.278-2.691s0.572-2.691,1.278-2.691c0.706,0,1.278,1.205,1.278,2.691 C44.077,52.436,43.505,53.641,42.799,53.641z"/><path fill="#f5f9fc" d="M67.277,47.266c-1.921-0.045-3.515,1.505-3.559,3.462c-0.001,0.051-0.001,0.103,0,0.154 c-0.258,1.84,0.998,3.544,2.804,3.807c0.279,0.041,0.562,0.045,0.842,0.012c1.861,0.008,3.375-1.521,3.384-3.417 c0-0.1-0.003-0.2-0.012-0.299c0.17-1.875-1.185-3.534-3.025-3.707C67.567,47.265,67.422,47.261,67.277,47.266z M67.227,53.62 c-0.702,0-1.271-1.197-1.271-2.676c0-1.479,0.569-2.676,1.271-2.676s1.271,1.199,1.271,2.676 C68.498,52.422,67.929,53.62,67.227,53.62z"/><path fill="#f5f9fc" d="M54.388,51.197v3.553H47.25v-1.227h1.163v-5.04H47.25V47.25h4.745v1.21h-1.222v5.028h1.211 c0.875,0,1.595-1.037,1.595-2.298L54.388,51.197z"/><line x1="26.887" x2="72.387" y1="59.5" y2="59.5" fill="none" stroke="#1f212b" stroke-linecap="round" stroke-linejoin="round" stroke-miterlimit="10"/><path fill="none" stroke="#1f212b" stroke-linecap="round" stroke-linejoin="round" stroke-miterlimit="10" stroke-width="2" d="M85,32V14H67l3.818,3.818l-3.08,3.08C62.537,17.816,56.478,16.029,50,16c-19.33,0-35,15.67-35,35s15.67,35,35,35s35-15.67,35-35 c-0.034-7.513-2.431-14.463-6.475-20.161l2.657-2.657L85,32z M73.996,51c0.231,13.022-10.138,23.765-23.159,23.996 c-0.279,0.005-0.558,0.005-0.837,0c-13.022,0.231-23.765-10.138-23.996-23.159c-0.005-0.279-0.005-0.558,0-0.837 c-0.231-13.022,10.138-23.765,23.159-23.996c0.279-0.005,0.558-0.005,0.837,0c13.022-0.231,23.765,10.138,23.996,23.159 C74.001,50.442,74.001,50.721,73.996,51z"/><path fill="none" stroke="#1f212b" stroke-linecap="round" stroke-linejoin="round" stroke-miterlimit="10" d="M47.5,20.601 c0.825-0.067,1.658-0.101,2.5-0.101"/><path fill="none" stroke="#1f212b" stroke-linecap="round" stroke-linejoin="round" stroke-miterlimit="10" d="M35.5,24.161 c2.77-1.499,5.798-2.583,9-3.166"/><path fill="none" stroke="#1f212b" stroke-linecap="round" stroke-linejoin="round" stroke-miterlimit="10" d="M30.557,27.5 c0.747-0.619,1.525-1.203,2.33-1.75"/><path fill="none" stroke="#1f212b" stroke-linecap="round" stroke-linejoin="round" stroke-miterlimit="10" d="M30,74.028 C23.567,68.436,19.5,60.193,19.5,51c0-8.456,3.441-16.108,9-21.633"/></svg>